<svg width="20" height="14" viewBox="0 0 20 14" fill="none" xmlns="http://www.w3.org/2000/svg">
<path d="M16.3531 1.26476C15.1843 0.737683 13.9316 0.348106 12.6215 0.126582C12.6099 0.124342 12.5978 0.125786 12.587 0.130713C12.5762 0.13564 12.5671 0.143806 12.5612 0.154082C12.4008 0.435952 12.222 0.803377 12.0967 1.09365C10.7073 0.886056 9.29476 0.886056 7.90534 1.09365C7.76581 0.771951 7.60846 0.458276 7.43403 0.154082C7.42812 0.14368 7.41918 0.135328 7.40839 0.130142C7.39761 0.124955 7.3855 0.123181 7.37369 0.125054C6.0644 0.346579 4.81164 0.736156 3.64215 1.26399C3.63209 1.26821 3.62356 1.27541 3.61771 1.28462C1.24052 4.77935 0.588934 8.18777 0.908999 11.5534C0.909889 11.5617 0.912448 11.5696 0.916519 11.5769C0.92059 11.5841 0.926088 11.5904 0.932679 11.5954C2.32018 12.6056 3.86775 13.3751 5.51059 13.8718C5.52204 13.8753 5.53429 13.8753 5.54574 13.8717C5.55719 13.8682 5.5673 13.8613 5.57476 13.8519C5.92828 13.3791 6.24154 12.8775 6.51127 12.3524C6.51501 12.3452 6.51717 12.3373 6.5176 12.3293C6.51802 12.3212 6.51671 12.3131 6.51374 12.3056C6.51077 12.298 6.50621 12.2912 6.50038 12.2856C6.49455 12.28 6.48759 12.2757 6.47995 12.273C5.98649 12.0872 5.50836 11.8629 5.04997 11.6023C5.04174 11.5976 5.0348 11.5909 5.02977 11.5829C5.02475 11.5748 5.02181 11.5657 5.0212 11.5562C5.0206 11.5467 5.02235 11.5373 5.0263 11.5287C5.03026 11.52 5.03629 11.5125 5.04386 11.5068C5.14011 11.4358 5.23636 11.3617 5.32802 11.2876C5.33628 11.2809 5.34621 11.2767 5.35673 11.2753C5.36725 11.274 5.37794 11.2756 5.38761 11.2799C8.38735 12.6274 11.6361 12.6274 14.6007 11.2799C14.6104 11.2753 14.6212 11.2735 14.6319 11.2747C14.6426 11.2759 14.6527 11.2801 14.6611 11.2868C14.7527 11.3617 14.8482 11.4358 14.9452 11.5068C14.9529 11.5124 14.959 11.5198 14.9631 11.5284C14.9672 11.5369 14.9691 11.5463 14.9686 11.5558C14.9682 11.5652 14.9654 11.5744 14.9605 11.5826C14.9556 11.5907 14.9488 11.5975 14.9406 11.6023C14.4839 11.8651 14.0087 12.0874 13.5099 12.2722C13.5022 12.275 13.4953 12.2794 13.4894 12.2851C13.4836 12.2908 13.4791 12.2976 13.4761 12.3052C13.4731 12.3128 13.4718 12.321 13.4722 12.3291C13.4727 12.3372 13.4748 12.3452 13.4786 12.3524C13.7536 12.8772 14.0683 13.3768 14.4143 13.8512C14.4215 13.8609 14.4316 13.8682 14.443 13.872C14.4545 13.8758 14.4669 13.876 14.4785 13.8725C16.1242 13.3773 17.6743 12.6074 19.0633 11.5954C19.0701 11.5907 19.0758 11.5846 19.08 11.5774C19.0842 11.5703 19.0868 11.5624 19.0877 11.5542C19.4697 7.66299 18.4476 4.28207 16.3767 1.28615C16.3717 1.27641 16.3633 1.26882 16.3531 1.26476ZM6.95967 9.50393C6.05676 9.50393 5.31198 8.68735 5.31198 7.6859C5.31198 6.6837 6.04225 5.86788 6.95967 5.86788C7.88396 5.86788 8.62186 6.69057 8.60735 7.6859C8.60735 8.68811 7.87708 9.50393 6.95967 9.50393ZM13.0516 9.50393C12.1479 9.50393 11.4039 8.68735 11.4039 7.6859C11.4039 6.6837 12.1334 5.86788 13.0516 5.86788C13.9759 5.86788 14.7138 6.69057 14.6993 7.6859C14.6993 8.68811 13.9766 9.50393 13.0516 9.50393Z" fill="#333333"/>
</svg>
