<svg width="451" height="345" viewBox="0 0 451 345" fill="none" xmlns="http://www.w3.org/2000/svg">
<g clip-path="url(#clip0_401_1818)">
<path d="M121.247 157.353V224.631H95.5614V206.318H94.1372C90.0205 216.902 78.7338 225.592 61.3696 225.592C27.4802 225.582 0 205.202 0 165.859C0 127.244 27.4802 106.135 61.3696 106.135C91.991 106.135 115.92 123.156 120.447 145.663H92.3812C87.4842 136.604 77.5729 132.205 61.3696 132.205C41.1862 132.205 25.6268 142.517 25.6268 165.859C25.6268 189.22 41.1862 199.512 61.3696 199.512C80.8409 199.512 90.8985 192.628 94.2933 181.336H60.5795V157.353H121.247Z" fill="white"/>
<path d="M230.065 131.37V225.563H204.39V211.746H203.19C197.073 220.048 188.43 225.572 171.486 225.572C131.47 225.572 130.407 192.201 130.407 178.471V131.37H155.916V178.471C155.916 185.802 154.336 203.619 178.909 203.619C201.063 203.619 204.39 189.56 204.39 176.801V131.37H230.065Z" fill="white"/>
<path d="M338.874 178.471V225.582H313.355V178.481C313.355 171.15 314.935 153.333 290.372 153.333C268.218 153.333 264.882 167.393 264.882 180.151V225.582H239.216V131.38H264.882V145.197H266.091C272.208 136.895 280.841 131.37 297.795 131.37C337.801 131.37 338.865 164.742 338.874 178.471Z" fill="white"/>
<path d="M425.315 145.158V131.312H451V225.572H425.315V212.416H424.515C418.106 220.611 407.307 225.572 389.523 225.572C349.8 225.572 345.323 191.133 345.323 178.442C345.323 164.703 349.546 131.312 389.591 131.312C407.092 131.312 417.813 136.808 424.242 145.158H425.315ZM423.705 178.452C423.705 165.694 419.169 153.294 397.005 153.294C372.422 153.294 369.827 171.121 369.827 178.452C369.827 185.229 372.578 203.609 396.966 203.609C419.179 203.6 423.705 192.706 423.705 178.452Z" fill="white"/>
<g opacity="0.82">
<path d="M216.486 103.213C235.519 103.213 255.848 108.844 273.769 120.331C295.62 134.341 310.136 154.576 313.589 175.84C316.145 191.618 312.409 206.25 302.761 218.164C279.485 246.904 228.612 249.817 189.357 224.66C167.496 210.649 152.99 190.414 149.537 169.15C146.981 153.372 150.717 138.74 160.365 126.826C173.027 111.204 193.835 103.213 216.486 103.213ZM246.659 241.166C269.125 241.166 289.747 233.253 302.273 217.776C311.804 206.008 315.501 191.54 312.974 175.947C309.55 154.848 295.142 134.769 273.427 120.855C234.436 95.8624 183.933 98.7171 160.853 127.215C151.322 138.983 147.625 153.45 150.151 169.043C153.575 190.142 167.984 210.222 189.699 224.135C207.521 235.564 227.744 241.166 246.659 241.166Z" fill="white"/>
<path d="M222.759 99.7171C236.016 99.7171 249.79 102.426 263.009 108.135C286.343 118.224 304.224 136.118 312.067 157.246C318.262 173.918 317.608 191.404 310.224 206.503C292.879 241.982 243.489 255.594 200.117 236.845C176.783 226.757 158.902 208.862 151.059 187.734C144.864 171.063 145.518 153.566 152.902 138.468C164.969 113.815 192.518 99.7171 222.759 99.7171ZM309.931 206.377L309.638 206.231C316.935 191.298 317.579 173.986 311.453 157.479C303.668 136.516 285.914 118.758 262.745 108.737C219.696 90.1241 170.686 103.601 153.497 138.759C146.201 153.693 145.547 171.005 151.683 187.511C159.468 208.474 177.222 226.233 200.39 236.253C243.44 254.866 292.45 241.389 309.638 206.231L309.931 206.377Z" fill="white"/>
<path d="M227.91 94.7167C235.207 94.7167 242.65 95.5712 250.103 97.348C273.769 103.009 294.206 117.486 306.175 137.05C316.672 154.197 319.91 173.908 315.316 192.541L314.984 192.463L315.316 192.541C305.092 233.971 259.204 258.692 213.023 247.633C189.357 241.972 168.92 227.495 156.951 207.93C146.454 190.783 143.216 171.073 147.81 152.44C156.385 117.709 190.04 94.7264 227.91 94.7167ZM235.236 249.604C272.803 249.604 306.165 226.825 314.662 192.385C319.218 173.927 315.999 154.411 305.6 137.41C293.718 118 273.437 103.64 249.947 98.018C204.136 87.0559 158.619 111.543 148.483 152.615C143.928 171.073 147.147 190.599 157.546 207.59C169.428 227.009 189.709 241.37 213.199 246.992C220.593 248.749 227.997 249.604 235.236 249.604Z" fill="white"/>
<path d="M231.041 88.4055C232.475 88.4055 233.909 88.4444 235.353 88.5123C282.812 90.7747 319.725 130.293 317.628 176.597C316.633 198.716 306.946 219.174 290.372 234.214C273.31 249.681 251.078 257.595 227.763 256.488C180.305 254.225 143.391 214.707 145.488 168.403C146.483 146.284 156.17 125.816 172.744 110.786C188.753 96.2703 209.316 88.4055 231.041 88.4055ZM232.095 255.886C253.654 255.886 274.042 248.089 289.904 233.699C306.341 218.785 315.94 198.502 316.925 176.578C318.994 130.652 282.392 91.4737 235.324 89.2308C212.204 88.1336 190.148 95.9693 173.232 111.32C156.795 126.234 147.196 146.517 146.21 168.441C144.142 214.358 180.744 253.546 227.812 255.789C229.246 255.847 230.67 255.886 232.095 255.886Z" fill="white"/>
<path d="M231.929 81.1234C249.429 81.1234 266.501 86.7646 281.036 97.5228C300.693 112.077 313.413 133.943 316.867 159.111C323.695 208.94 290.986 255.497 243.966 262.877C222.134 266.304 200.176 260.838 182.119 247.467C162.462 232.923 149.732 211.047 146.288 185.88C139.46 136.05 172.169 89.493 219.188 82.1137C223.432 81.4535 227.695 81.1234 231.929 81.1234ZM231.217 263.139C235.411 263.139 239.625 262.809 243.84 262.148C290.469 254.827 322.895 208.649 316.125 159.208C312.701 134.244 300.088 112.543 280.587 98.1151C262.696 84.8712 240.933 79.4533 219.296 82.8419C172.666 90.1629 140.24 136.342 147.01 185.783C150.434 210.746 163.048 232.447 182.548 246.875C196.956 257.546 213.882 263.139 231.217 263.139Z" fill="white"/>
<path d="M229.783 73.3557C241.108 73.3557 252.454 75.919 263.174 81.0166C286.226 91.9884 304.292 113.709 312.75 140.624C328.992 192.366 305.814 248.769 261.077 266.362C241.264 274.149 219.569 273.305 199.971 263.983C176.919 253.012 158.853 231.291 150.395 204.376C134.153 152.634 157.331 96.2314 202.068 78.6474C211.043 75.1131 220.398 73.3557 229.783 73.3557ZM233.363 270.868C242.64 270.868 251.907 269.13 260.784 265.644C305.161 248.205 328.134 192.22 312.009 140.857C303.619 114.146 285.699 92.6001 262.843 81.7156C243.45 72.4916 221.969 71.6468 202.361 79.3562C157.985 96.7946 135.011 152.78 151.137 204.143C159.526 230.854 177.446 252.4 200.303 263.284C210.906 268.333 222.154 270.868 233.363 270.868Z" fill="white"/>
<path d="M225.237 65.6172C231.246 65.6172 237.304 66.3842 243.342 67.9281C268.823 74.4529 291.357 94.0662 305.161 121.758C331.021 173.597 319.081 238.544 278.539 266.537C261.116 278.567 240.25 282.315 219.793 277.082C194.313 270.557 171.778 250.944 157.975 223.252C132.114 171.413 144.054 106.465 184.597 78.4726C196.888 69.9865 210.877 65.6172 225.237 65.6172ZM304.439 122.107C290.733 94.6293 268.384 75.1617 243.137 68.7048C222.915 63.5296 202.283 67.229 185.055 79.1329C144.835 106.912 133.012 171.403 158.697 222.893C172.403 250.371 194.742 269.838 219.998 276.295C240.221 281.47 260.853 277.771 278.08 265.867C318.301 238.098 330.124 173.607 304.439 122.107Z" fill="white"/>
<path d="M218.613 58.3641C219.959 58.3641 221.296 58.403 222.652 58.4806C249.078 60.0245 275.115 76.3268 294.108 103.183C329.422 153.139 330.143 224.883 295.727 263.11C281.026 279.431 261.418 287.743 240.484 286.519C214.057 284.966 188.011 268.673 169.027 241.816C133.714 191.861 132.992 120.117 167.408 81.8904C181.153 66.627 199.21 58.3641 218.613 58.3641ZM244.523 285.801C263.682 285.801 281.524 277.635 295.103 262.556C329.275 224.601 328.514 153.333 293.415 103.669C274.578 77.0162 248.766 60.8498 222.603 59.3157C201.941 58.1117 182.558 66.3163 168.032 82.4438C133.87 120.398 134.621 191.676 169.72 241.331C188.557 267.984 214.369 284.15 240.533 285.684C241.869 285.762 243.196 285.801 244.523 285.801Z" fill="white"/>
<path d="M210.604 52.0141C234.094 52.0141 258.833 63.9569 279.7 85.6577C323.93 131.662 338.396 208.037 311.95 255.915C300.468 276.693 282.47 289.665 261.272 292.423C235.284 295.811 206.926 283.752 183.455 259.342C139.226 213.338 124.759 136.963 151.205 89.0852C162.687 68.3067 180.685 55.3348 201.883 52.5773C204.761 52.1986 207.668 52.0141 210.604 52.0141ZM252.532 292.112C255.429 292.112 258.297 291.928 261.145 291.559C282.06 288.83 299.834 276.023 311.17 255.488C337.45 207.92 323.042 132.011 279.056 86.2597C255.78 62.0538 227.685 50.0916 201.98 53.4414C181.065 56.1698 163.291 68.9767 151.956 89.5124C125.685 137.08 140.084 212.989 184.07 258.74C204.78 280.266 229.285 292.112 252.532 292.112Z" fill="white"/>
<path d="M201.756 46.8875C221.286 46.8875 242.425 54.8104 262.189 69.9282C314.418 109.883 343.254 188.365 326.476 244.885C318.935 270.295 303.034 288.092 281.719 294.986C257.273 302.89 227.832 295.627 200.946 275.062C148.717 235.107 119.881 156.625 136.66 100.106C144.201 74.6956 160.102 56.898 181.417 50.0042C187.884 47.9167 194.713 46.8875 201.756 46.8875ZM261.38 297.2C268.325 297.2 275.056 296.18 281.436 294.122C302.458 287.325 318.135 269.751 325.598 244.632C342.279 188.443 313.579 110.398 261.623 70.6564C234.982 50.2761 205.843 43.0619 181.69 50.8781C160.667 57.6748 144.991 75.2491 137.528 100.368C120.847 156.557 149.546 234.602 201.502 274.344C221.11 289.335 242.055 297.2 261.38 297.2Z" fill="white"/>
<path d="M193.132 43.0328C208.467 43.0328 225.08 47.6351 241.986 56.7718C300.907 88.6191 344.269 166.393 338.63 230.146C335.977 260.206 322.856 282.985 301.688 294.306C279.222 306.317 250.619 304.162 221.159 288.238C162.238 256.391 118.876 178.617 124.515 114.864C127.168 84.8033 140.289 62.0247 161.457 50.7033C171.037 45.5767 181.729 43.0328 193.132 43.0328ZM270.003 301.016C281.251 301.016 291.796 298.511 301.239 293.462C322.115 282.305 335.06 259.789 337.684 230.058C343.284 166.645 300.156 89.2794 241.528 57.5971C212.35 41.8288 184.08 39.6733 161.906 51.5286C141.03 62.6849 128.085 85.2014 125.461 114.932C119.861 178.345 162.989 255.711 221.617 287.393C238.357 296.452 254.824 301.016 270.003 301.016Z" fill="white"/>
<path d="M185.133 40.7413C195.971 40.7413 207.58 42.7803 219.628 46.8875C283.573 68.7048 341.04 142.73 347.732 211.911C351.059 246.283 341.567 274.101 321.013 290.258C301.385 305.676 273.856 308.473 243.508 298.113C179.563 276.295 122.086 202.27 115.394 133.089C112.067 98.7171 121.559 70.8992 142.113 54.7425C153.956 45.4504 168.667 40.7413 185.133 40.7413ZM278.002 303.268C294.254 303.268 308.751 298.637 320.408 289.471C340.689 273.538 350.044 246.021 346.747 211.998C340.084 143.167 282.919 69.5204 219.306 47.8196C189.279 37.576 162.082 40.3141 142.737 55.5192C122.457 71.4526 113.101 98.9695 116.399 132.992C123.052 201.823 180.226 275.47 243.84 297.171C255.77 301.249 267.272 303.268 278.002 303.268Z" fill="white"/>
<path d="M179.29 39.6927C184.606 39.6927 190.108 40.1102 195.776 40.9646C262.745 51.0431 333.353 118.165 353.185 190.589C363.399 227.912 358.433 261.43 339.538 282.548C323.091 300.938 297.464 308.57 267.369 304.045C200.41 293.967 129.792 226.854 109.96 154.421C99.7464 117.097 104.712 83.5799 123.608 62.4616C136.953 47.5283 156.356 39.6927 179.29 39.6927ZM283.846 304.278C306.478 304.278 325.617 296.559 338.767 281.859C357.419 261.003 362.306 227.835 352.19 190.861C332.446 118.787 262.218 52.0044 195.62 41.9841C165.886 37.508 140.581 45.0232 124.378 63.1412C105.726 83.9974 100.839 117.165 110.955 154.139C130.69 226.213 200.917 292.996 267.515 303.016C273.125 303.861 278.578 304.278 283.846 304.278Z" fill="white"/>
<path d="M176.48 39.4402C243.108 39.4402 321.949 95.4158 354.444 166.713C372.403 206.124 373.29 244.03 356.873 270.693C343.888 291.782 320.827 304.113 291.923 305.434C224.251 308.511 142.045 251.468 108.692 178.277C90.7326 138.866 89.8449 100.96 106.263 74.2975C119.247 53.2084 142.308 40.8772 171.213 39.5567C172.959 39.4791 174.715 39.4402 176.48 39.4402ZM171.261 40.6345L171.232 40.1005L171.261 40.6345C142.728 41.9356 119.979 54.0822 107.19 74.8607C90.9667 101.222 91.874 138.75 109.687 177.84C142.874 250.662 224.583 307.424 291.884 304.365C320.418 303.064 343.167 290.918 355.956 270.139C372.178 243.778 371.271 206.25 353.458 167.169C320.271 94.3381 238.543 37.576 171.261 40.6345Z" fill="white"/>
<path d="M177.329 39.3917C238.679 39.3917 311.209 80.2592 351.107 141.002C377.124 180.617 384.899 221.844 372.432 254.109C363.135 278.159 343.732 294.675 316.32 301.86C250.454 319.124 158.814 275.227 112.038 204.008C86.021 164.393 78.2461 123.166 90.7132 90.8912C100.01 66.8406 119.413 50.3246 146.825 43.1493C156.502 40.6054 166.755 39.3917 177.329 39.3917ZM285.758 304.492C296.254 304.492 306.419 303.288 316.028 300.763C343.069 293.675 362.209 277.402 371.369 253.701C383.709 221.776 375.973 180.918 350.151 141.604C303.629 70.773 212.545 27.0897 147.108 44.227C120.066 51.315 100.927 67.5882 91.7668 91.2892C79.4265 123.214 87.1623 164.072 112.984 203.386C152.668 263.818 224.798 304.492 285.758 304.492Z" fill="white"/>
<path d="M182.451 38.7314C237.216 38.7314 300.088 66.5687 342.903 114.243C376.607 151.77 392.03 194.735 385.231 232.117C380.353 258.905 364.57 279.956 339.587 292.996C278.217 325.018 179.817 297.093 120.232 230.757C86.5283 193.22 71.1054 150.265 77.9145 112.883C82.7921 86.0946 98.5759 65.0443 123.559 52.0044L123.832 52.519L123.559 52.0044C140.816 42.9939 161.009 38.7314 182.451 38.7314ZM280.656 305.113C301.912 305.113 321.93 300.889 339.05 291.957C363.701 279.101 379.271 258.332 384.08 231.903C390.821 194.881 375.495 152.275 342.035 115.019C299.434 67.5882 236.914 39.8771 182.499 39.8771C161.243 39.8771 141.225 44.1008 124.105 53.0336C99.4539 65.889 83.8847 86.6578 79.0754 113.087C72.3346 150.11 87.6599 192.715 121.12 229.971C163.711 277.412 226.232 305.113 280.656 305.113Z" fill="white"/>
<path d="M191.972 36.4885C238.143 36.4885 288.967 53.9172 329.734 87.3957C369.954 120.437 393.328 163.023 393.864 204.26C394.254 233.894 382.802 259.643 360.745 278.732C306.624 325.591 204.644 316.104 133.421 257.604C93.2008 224.563 69.8275 181.977 69.2909 140.74C68.9105 111.106 80.363 85.3567 102.41 66.2677C125.549 46.2272 157.458 36.4885 191.972 36.4885ZM271.164 307.307C305.375 307.307 336.992 297.666 359.926 277.81C381.7 258.964 393.006 233.534 392.625 204.27C392.099 163.402 368.881 121.146 328.944 88.3376C258.17 30.1967 156.902 20.7105 103.2 67.1901L102.8 66.7338L103.2 67.1901C81.4263 86.0364 70.1201 111.466 70.5006 140.73C71.0273 181.598 94.2446 223.854 134.182 256.662C174.734 289.966 225.286 307.307 271.164 307.307Z" fill="white"/>
<path d="M204.351 31.7502C239.908 31.7502 277.602 41.4501 311.638 61.4712C356.521 87.8715 387.465 127.652 396.527 170.626C403.258 202.522 396.947 233.961 378.763 259.158C334.602 320.328 232.651 331.271 151.498 283.529C106.614 257.128 75.6707 217.348 66.6082 174.374C59.8772 142.488 66.1887 111.048 84.3723 85.8422L84.8894 86.2112L84.3723 85.8422C110.009 50.3343 155.126 31.7502 204.351 31.7502ZM258.814 311.997C307.619 311.997 352.327 293.598 377.729 258.41C395.962 233.146 402.039 202.881 395.279 170.888C386.284 128.273 355.565 88.7939 310.984 62.5684C277.134 42.6638 239.655 33.0125 204.322 33.0125C155.517 33.0125 110.809 51.4121 85.4064 86.5995C67.174 111.864 61.0966 142.128 67.8569 174.121C76.8511 216.737 107.57 256.216 152.151 282.441C185.992 302.346 223.481 311.997 258.814 311.997Z" fill="white"/>
<path d="M216.652 23.9729C240.416 23.9729 264.999 28.3325 288.909 37.5274C336.192 55.7232 373.573 90.2406 391.445 132.234C405.883 166.14 406.331 202.473 392.703 234.525C361.077 308.929 263.077 341.65 174.227 307.453C126.944 289.257 89.5621 254.74 71.6906 212.746C57.253 178.84 56.8043 142.507 70.4322 110.446C93.5422 56.0921 152.112 23.9729 216.652 23.9729ZM246.503 319.697C310.516 319.697 368.579 287.888 391.474 234.01C404.956 202.289 404.517 166.325 390.216 132.749C372.481 91.0951 335.382 56.83 288.421 38.7606C200.234 4.82565 102.995 37.2167 71.6516 110.971C58.17 142.692 58.6187 178.656 72.91 212.232C90.6449 253.886 127.744 288.141 174.705 306.22C198.469 315.376 222.895 319.697 246.503 319.697Z" fill="white"/>
<path d="M226.144 13.2341C237.938 13.2341 249.927 14.3507 261.994 16.6907C307.414 25.4779 346.961 49.946 373.339 85.5703C399.727 121.224 409.785 163.781 401.659 205.406C384.88 291.316 294.928 346.456 201.132 328.309C107.346 310.162 44.6982 225.504 61.4673 139.594L62.1502 139.73L61.4673 139.594C76.0903 64.7336 146.288 13.2341 226.144 13.2341ZM236.992 330.387C316.213 330.387 385.807 279.354 400.303 205.144C408.36 163.897 398.391 121.719 372.227 86.3859C346.054 51.0334 306.819 26.7595 261.731 18.0404C249.761 15.7198 237.84 14.6129 226.144 14.6129C146.922 14.6129 77.3195 65.6463 62.8331 139.856C46.2005 225.019 108.36 308.958 201.405 326.96C213.374 329.271 225.295 330.387 236.992 330.387Z" fill="white"/>
<path d="M231.568 0C327.129 0 404.878 77.3852 404.878 172.5C404.878 267.615 327.129 345 231.568 345C136.006 345 58.2578 267.615 58.2578 172.5C58.2578 77.3852 136.006 0 231.568 0ZM231.568 343.563C326.329 343.563 403.434 266.828 403.434 172.5C403.434 78.1716 326.329 1.43701 231.568 1.43701C136.806 1.43701 59.7016 78.1814 59.7016 172.5C59.7016 266.819 136.806 343.563 231.568 343.563Z" fill="white"/>
</g>
</g>
<defs>
<clipPath id="clip0_401_1818">
<rect width="451" height="345" fill="white"/>
</clipPath>
</defs>
</svg>
