<svg width="16" height="16" viewBox="0 0 16 16" fill="none" xmlns="http://www.w3.org/2000/svg">
<path d="M8.00009 5.39648C6.5665 5.39648 5.39658 6.56641 5.39658 8C5.39658 9.43359 6.5665 10.6035 8.00009 10.6035C9.43369 10.6035 10.6036 9.43359 10.6036 8C10.6036 6.56641 9.43369 5.39648 8.00009 5.39648ZM15.8087 8C15.8087 6.92188 15.8185 5.85352 15.7579 4.77734C15.6974 3.52734 15.4122 2.41797 14.4981 1.50391C13.5821 0.587892 12.4747 0.304689 11.2247 0.244142C10.1466 0.183595 9.07822 0.19336 8.00205 0.19336C6.92392 0.19336 5.85556 0.183595 4.77939 0.244142C3.52939 0.304689 2.42001 0.589845 1.50595 1.50391C0.589936 2.41992 0.306733 3.52734 0.246186 4.77734C0.18564 5.85547 0.195405 6.92383 0.195405 8C0.195405 9.07617 0.18564 10.1465 0.246186 11.2227C0.306733 12.4727 0.59189 13.582 1.50595 14.4961C2.42197 15.4121 3.52939 15.6953 4.77939 15.7559C5.85751 15.8164 6.92587 15.8066 8.00205 15.8066C9.08017 15.8066 10.1485 15.8164 11.2247 15.7559C12.4747 15.6953 13.5841 15.4102 14.4981 14.4961C15.4142 13.5801 15.6974 12.4727 15.7579 11.2227C15.8204 10.1465 15.8087 9.07812 15.8087 8ZM8.00009 12.0059C5.7833 12.0059 3.99423 10.2168 3.99423 8C3.99423 5.7832 5.7833 3.99414 8.00009 3.99414C10.2169 3.99414 12.006 5.7832 12.006 8C12.006 10.2168 10.2169 12.0059 8.00009 12.0059ZM12.17 4.76563C11.6524 4.76563 11.2345 4.34766 11.2345 3.83008C11.2345 3.3125 11.6524 2.89453 12.17 2.89453C12.6876 2.89453 13.1056 3.3125 13.1056 3.83008C13.1057 3.95298 13.0816 4.0747 13.0347 4.18828C12.9877 4.30185 12.9188 4.40505 12.8319 4.49195C12.745 4.57886 12.6418 4.64776 12.5282 4.69473C12.4146 4.74169 12.2929 4.76578 12.17 4.76563Z" fill="#333333"/>
</svg>
