<svg width="18" height="18" viewBox="0 0 18 18" fill="none" xmlns="http://www.w3.org/2000/svg">
<path d="M10.4062 9.70312C10.4062 9.88961 10.4803 10.0684 10.6122 10.2003C10.7441 10.3322 10.9229 10.4062 11.1094 10.4062C11.2959 10.4062 11.4747 10.3322 11.6066 10.2003C11.7384 10.0684 11.8125 9.88961 11.8125 9.70312C11.8125 9.51664 11.7384 9.3378 11.6066 9.20594C11.4747 9.07408 11.2959 9 11.1094 9C10.9229 9 10.7441 9.07408 10.6122 9.20594C10.4803 9.3378 10.4062 9.51664 10.4062 9.70312ZM13.2188 7.59375C13.0857 7.59366 12.9553 7.63145 12.8429 7.7027C12.7305 7.77394 12.6407 7.8757 12.584 7.99609C12.9512 8.27539 13.2559 8.5957 13.4805 8.94922C13.6323 8.88865 13.7583 8.77703 13.8368 8.63357C13.9152 8.49011 13.9411 8.32379 13.9101 8.16326C13.8791 8.00273 13.7931 7.85802 13.6669 7.75407C13.5407 7.65012 13.3822 7.59343 13.2188 7.59375ZM9 0.25C4.16797 0.25 0.25 4.16797 0.25 9C0.25 13.832 4.16797 17.75 9 17.75C13.832 17.75 17.75 13.832 17.75 9C17.75 4.16797 13.832 0.25 9 0.25ZM13.7852 9.58398C13.875 9.84766 13.9219 10.123 13.9219 10.4062C13.9219 12.3477 11.7188 13.9219 9 13.9219C6.28125 13.9219 4.07812 12.3477 4.07812 10.4062C4.07812 10.123 4.125 9.84766 4.21484 9.58398C3.91968 9.45385 3.67822 9.2262 3.53094 8.9392C3.38366 8.65221 3.33952 8.32331 3.4059 8.00763C3.47229 7.69195 3.64517 7.40869 3.89557 7.20533C4.14597 7.00196 4.45867 6.89085 4.78125 6.89062C5.31055 6.89062 5.76953 7.18164 6.00977 7.61328C6.7168 7.22656 7.57617 6.97266 8.51172 6.9082L9.65234 4.34766C9.73633 4.15625 9.94922 4.05859 10.1504 4.11719L11.9395 4.63477C12.0509 4.42791 12.2281 4.26415 12.4431 4.16943C12.6581 4.07471 12.8986 4.05444 13.1264 4.11185C13.3542 4.16925 13.5564 4.30104 13.7008 4.48633C13.8453 4.67163 13.9237 4.89982 13.9238 5.13477C13.9238 5.7168 13.4512 6.18945 12.8691 6.18945C12.4102 6.18945 12.0195 5.89453 11.875 5.48438L10.2695 5.02148L9.42969 6.90625C10.3887 6.96484 11.2695 7.2207 11.9922 7.61523C12.2324 7.18359 12.6914 6.89258 13.2207 6.89258C13.998 6.89258 14.627 7.52148 14.627 8.29883C14.625 8.87109 14.2793 9.36524 13.7852 9.58398ZM10.4395 11.2051C10.1484 11.4336 9.57422 11.6797 9 11.6797C8.42578 11.6797 7.84961 11.4336 7.56055 11.2051C7.37891 11.0625 7.11719 11.0938 6.97461 11.2754C6.83203 11.457 6.86328 11.7188 7.04492 11.8613C7.54688 12.2598 8.31445 12.5156 9 12.5156C9.68555 12.5156 10.4531 12.2598 10.957 11.8613C11.1387 11.7188 11.1699 11.4551 11.0273 11.2754C10.9586 11.1882 10.8581 11.1319 10.7479 11.1187C10.6377 11.1055 10.5268 11.1366 10.4395 11.2051ZM4.78125 7.59375C4.61775 7.59343 4.45926 7.65012 4.33306 7.75407C4.20687 7.85802 4.12087 8.00273 4.08987 8.16326C4.05887 8.32379 4.08482 8.49011 4.16325 8.63357C4.24167 8.77703 4.36767 8.88865 4.51953 8.94922C4.74414 8.5957 5.04883 8.27539 5.41602 7.99609C5.3593 7.8757 5.26949 7.77394 5.15709 7.7027C5.04469 7.63145 4.91433 7.59366 4.78125 7.59375ZM6.1875 9.70312C6.1875 9.88961 6.26158 10.0684 6.39344 10.2003C6.5253 10.3322 6.70414 10.4062 6.89062 10.4062C7.07711 10.4062 7.25595 10.3322 7.38781 10.2003C7.51967 10.0684 7.59375 9.88961 7.59375 9.70312C7.59375 9.51664 7.51967 9.3378 7.38781 9.20594C7.25595 9.07408 7.07711 9 6.89062 9C6.70414 9 6.5253 9.07408 6.39344 9.20594C6.26158 9.3378 6.1875 9.51664 6.1875 9.70312Z" fill="#333333"/>
</svg>
