<svg width="22" height="18" viewBox="0 0 22 18" fill="none" xmlns="http://www.w3.org/2000/svg">
<path d="M21.42 2.33577C20.6323 2.68482 19.7861 2.92066 18.8965 3.02726C19.8144 2.47802 20.5011 1.6136 20.8285 0.595269C19.9661 1.1075 19.0223 1.46806 18.038 1.66127C17.3761 0.954563 16.4995 0.486147 15.5441 0.328745C14.5887 0.171343 13.6081 0.333761 12.7545 0.790784C11.9009 1.24781 11.222 1.97386 10.8233 2.85623C10.4247 3.73859 10.3284 4.7279 10.5496 5.67056C8.80222 5.58282 7.09279 5.12864 5.53227 4.3375C3.97176 3.54635 2.59504 2.43592 1.49146 1.07827C1.11411 1.72919 0.897137 2.48388 0.897137 3.28762C0.896716 4.01118 1.0749 4.72365 1.41587 5.36182C1.75685 6 2.25007 6.54415 2.85178 6.94598C2.15396 6.92378 1.47152 6.73522 0.86129 6.396V6.4526C0.861219 7.46742 1.21225 8.451 1.85482 9.23646C2.49739 10.0219 3.39193 10.5609 4.38663 10.7619C3.73928 10.9371 3.06058 10.9629 2.4018 10.8374C2.68245 11.7105 3.22912 12.4741 3.9653 13.0212C4.70147 13.5682 5.59028 13.8714 6.50731 13.8882C4.95061 15.1102 3.02809 15.7731 1.04902 15.7702C0.698447 15.7703 0.348173 15.7498 0 15.7089C2.00887 17.0005 4.34733 17.686 6.7356 17.6833C14.8202 17.6833 19.2399 10.9873 19.2399 5.18001C19.2399 4.99134 19.2352 4.80078 19.2267 4.6121C20.0863 3.9904 20.8284 3.22055 21.4181 2.3386L21.42 2.33577Z" fill="#333333"/>
</svg>
